<svg width="439" height="440" viewBox="0 0 439 440" fill="none" xmlns="http://www.w3.org/2000/svg">
<path d="M169.969 417.031H13.7812L22.9688 233.281H160.781L169.969 417.031Z" fill="#8DC63F"/>
<path d="M206.719 417.031H169.969L160.781 233.281H197.531L206.719 417.031Z" fill="#4B7414"/>
<path d="M280.219 417.031H243.469L242.895 409.607V409.601L234.281 297.594H271.031L279.501 407.666V407.671L280.219 417.031Z" fill="#F15A22"/>
<path d="M73.5 315.969H45.9375V279.219L59.7188 270.031L73.5 279.219V315.969Z" fill="#F58220"/>
<path d="M243.469 417.031H124.031L133.219 297.594H234.281L243.469 417.031Z" fill="#F58220"/>
<path d="M275.612 297.241C275.523 296.087 275.002 295.009 274.153 294.223C273.303 293.437 272.189 293 271.031 293H205.117L202.119 233.052C202.06 231.874 201.551 230.765 200.697 229.953C199.843 229.14 198.71 228.687 197.531 228.687H165.375V205.719C165.377 199.104 163.792 192.585 160.752 186.71C157.712 180.835 153.306 175.776 147.905 171.957C142.503 168.139 136.265 165.672 129.712 164.765C123.16 163.858 116.485 164.537 110.25 166.745C104.015 164.537 97.3402 163.858 90.7878 164.765C84.2355 165.672 77.9965 168.139 72.5953 171.957C67.194 175.776 62.7882 180.835 59.7482 186.71C56.7082 192.585 55.1227 199.104 55.125 205.719V228.687H22.9688C21.7902 228.687 20.6567 229.14 19.8027 229.953C18.9488 230.765 18.4397 231.874 18.3807 233.052L9.19325 416.802C9.16212 417.423 9.25771 418.045 9.47423 418.629C9.69075 419.212 10.0237 419.746 10.4528 420.197C10.8819 420.648 11.3982 421.008 11.9704 421.253C12.5425 421.498 13.1587 421.625 13.7813 421.625H280.219C280.852 421.625 281.478 421.494 282.058 421.241C282.638 420.987 283.159 420.617 283.59 420.152C284.02 419.688 284.349 419.14 284.557 418.542C284.765 417.944 284.848 417.31 284.799 416.679L275.612 297.241ZM261.844 397.75L271.635 412.437H252.054L261.844 397.75ZM274.29 399.857L266.301 387.873L257.732 302.187H266.777L274.29 399.857ZM248.499 302.187L257.112 388.289L247.029 403.411L239.242 302.187H248.499ZM195.918 293H187.272L184.028 237.875H193.159L195.918 293ZM174.825 237.875L178.068 293H168.364L165.608 237.875H174.825ZM124.031 173.562C132.557 173.572 140.73 176.963 146.758 182.992C152.787 189.02 156.178 197.193 156.187 205.719V228.687H137.812V205.719C137.812 199.56 136.434 193.478 133.779 187.921C131.123 182.364 127.257 177.471 122.465 173.602C122.984 173.577 123.506 173.562 124.031 173.562ZM110.25 176.671C115.744 179.283 120.386 183.397 123.638 188.538C126.89 193.679 128.619 199.636 128.625 205.719V228.687H91.875V205.719C91.8809 199.636 93.6099 193.679 96.862 188.538C100.114 183.397 104.756 179.283 110.25 176.671ZM64.3125 205.719C64.3222 197.193 67.7132 189.02 73.7416 182.992C79.77 176.963 87.9434 173.572 96.4687 173.562C96.9941 173.562 97.5155 173.577 98.0346 173.602C93.2424 177.471 89.3768 182.364 86.7212 187.921C84.0656 193.478 82.6874 199.56 82.6875 205.719V228.687H64.3125V205.719ZM119.777 412.437H18.6104L27.3386 237.875H55.125V267.573L43.3891 275.397C42.7599 275.816 42.2441 276.385 41.8873 277.051C41.5305 277.718 41.3438 278.463 41.3438 279.219V315.969C41.3438 317.187 41.8277 318.356 42.6892 319.217C43.5507 320.078 44.7192 320.562 45.9375 320.562H73.5C74.7183 320.562 75.8868 320.078 76.7483 319.217C77.6098 318.356 78.0938 317.187 78.0938 315.969V279.219C78.0937 278.463 77.907 277.718 77.5502 277.051C77.1934 276.385 76.6776 275.816 76.0484 275.397L64.3125 267.573V237.875H128.625V251.656C128.625 252.875 129.109 254.043 129.97 254.904C130.832 255.766 132 256.25 133.219 256.25C134.437 256.25 135.606 255.766 136.467 254.904C137.329 254.043 137.812 252.875 137.812 251.656V237.875H156.411L159.168 293H133.219C132.061 293 130.947 293.437 130.097 294.223C129.248 295.009 128.727 296.087 128.638 297.241L119.777 412.437ZM59.7188 275.552L68.9062 281.677V311.375H50.5312V281.677L59.7188 275.552ZM137.473 302.187H230.027L238.508 412.437H128.992L137.473 302.187Z" fill="#2C2C2C"/>
<path d="M206.719 320.562C205.5 320.562 204.332 321.046 203.47 321.908C202.609 322.769 202.125 323.938 202.125 325.156V361.906C202.121 365.56 200.668 369.063 198.084 371.647C195.5 374.23 191.998 375.683 188.344 375.687H179.156C175.502 375.683 172 374.23 169.416 371.647C166.832 369.063 165.379 365.56 165.375 361.906V325.156C165.375 323.938 164.891 322.769 164.03 321.908C163.168 321.046 162 320.562 160.781 320.562C159.563 320.562 158.394 321.046 157.533 321.908C156.671 322.769 156.188 323.938 156.188 325.156V361.906C156.194 367.996 158.616 373.834 162.922 378.14C167.228 382.446 173.067 384.868 179.156 384.875H188.344C194.433 384.868 200.272 382.446 204.578 378.14C208.884 373.834 211.306 367.996 211.312 361.906V325.156C211.312 323.938 210.829 322.769 209.967 321.908C209.106 321.046 207.937 320.562 206.719 320.562Z" fill="#2C2C2C"/>
<path d="M304.681 231.476C300.218 231.476 296.588 227.845 296.588 223.382V221.178C290.767 220.011 285.974 217.516 282.318 213.742C279.204 210.528 277.078 206.531 275.999 201.859C275.408 199.297 276.009 196.647 277.648 194.587C279.29 192.523 281.742 191.339 284.377 191.339C288.383 191.339 291.811 194.029 292.713 197.879C293.165 199.802 294.002 201.34 295.276 202.579C297.31 204.558 300.279 205.519 304.351 205.519C307.848 205.519 310.533 204.683 312.556 202.965C314.335 201.455 315.163 199.591 315.163 197.099C315.163 194.83 314.526 193.149 313.158 191.809C311.891 190.569 308.975 188.603 302.29 186.29C293.743 183.608 287.712 180.319 283.927 176.264C279.869 171.916 277.811 166.325 277.811 159.646C277.811 152.639 280.059 146.806 284.49 142.309C287.741 139.009 291.854 136.756 296.742 135.594V132.624C296.742 128.148 300.385 124.505 304.861 124.505C309.338 124.505 312.98 128.148 312.98 132.624V135.66C318.114 136.981 322.339 139.597 325.563 143.456C328.32 146.759 330.18 150.846 331.093 155.604C331.573 158.106 330.913 160.67 329.286 162.639C327.646 164.624 325.23 165.762 322.658 165.762C318.618 165.762 315.096 162.919 314.283 159.003C313.859 156.956 313.074 155.307 311.888 153.959C310.183 152.025 307.901 151.124 304.709 151.124C301.318 151.124 298.867 151.877 297.217 153.425C295.647 154.9 294.915 156.834 294.915 159.515C294.915 162.834 296.024 164.246 296.859 165.019C298.16 166.224 301.067 168.121 307.527 170.313C314.023 172.52 318.709 174.64 321.852 176.794C325.278 179.143 327.907 182.013 329.664 185.326V185.327C331.425 188.649 332.317 192.576 332.317 196.998C332.317 204.075 330.005 209.932 325.445 214.402C322.105 217.677 317.852 219.904 312.777 221.04V223.385C312.775 227.845 309.144 231.476 304.681 231.476ZM284.376 196.853C283.432 196.853 282.552 197.278 281.963 198.019C281.377 198.757 281.162 199.704 281.372 200.618C282.221 204.297 283.872 207.422 286.278 209.904C289.54 213.27 294.058 215.357 299.709 216.108C301.078 216.29 302.102 217.459 302.102 218.841V223.382C302.102 224.805 303.258 225.962 304.681 225.962C306.104 225.962 307.26 224.805 307.26 223.382V218.751C307.26 217.388 308.256 216.229 309.604 216.025C314.554 215.274 318.584 213.402 321.581 210.463C325.045 207.068 326.801 202.536 326.801 196.997C326.801 193.483 326.124 190.426 324.79 187.909C323.454 185.391 321.416 183.182 318.731 181.341C316.009 179.476 311.763 177.575 305.751 175.534C299.744 173.495 295.608 171.379 293.109 169.064C290.647 166.783 289.397 163.57 289.397 159.514C289.397 155.323 290.757 151.921 293.44 149.403C296.16 146.85 299.845 145.609 304.705 145.609C309.463 145.609 313.27 147.191 316.021 150.312C317.833 152.369 319.064 154.915 319.679 157.881C319.964 159.251 321.215 160.247 322.656 160.247C323.578 160.247 324.443 159.838 325.033 159.126C325.373 158.714 325.907 157.846 325.676 156.641C324.941 152.812 323.478 149.564 321.329 146.988C318.499 143.6 314.602 141.451 309.745 140.599C308.426 140.367 307.465 139.222 307.465 137.883V132.623C307.465 131.187 306.296 130.018 304.86 130.018C303.424 130.018 302.255 131.187 302.255 132.623V137.856C302.255 139.21 301.272 140.363 299.936 140.578C295.203 141.339 291.327 143.223 288.417 146.179C285.038 149.608 283.324 154.139 283.324 159.645C283.324 164.881 284.884 169.207 287.957 172.501C291.075 175.842 296.328 178.64 304.017 181.054C310.323 183.235 314.55 185.456 317.015 187.869C319.445 190.249 320.676 193.354 320.676 197.099C320.676 201.216 319.144 204.604 316.124 207.169C313.061 209.769 309.209 211.034 304.349 211.034C298.769 211.034 294.543 209.561 291.43 206.533C289.406 204.564 288.031 202.076 287.343 199.137C287.033 197.814 285.785 196.853 284.376 196.853Z" fill="#8DC63F"/>
<path d="M304.046 110.789C285.633 110.789 270.652 95.8073 270.652 77.3938C270.652 58.9804 285.633 44 304.046 44C322.459 44 337.44 58.9804 337.44 77.3938C337.44 95.8084 322.459 110.789 304.046 110.789ZM304.046 49.514C288.673 49.514 276.166 62.0208 276.166 77.3938C276.166 92.7669 288.673 105.275 304.046 105.275C319.419 105.275 331.926 92.768 331.926 77.3938C331.926 62.0208 319.419 49.514 304.046 49.514Z" fill="#8DC63F"/>
<path d="M299.53 94.1024C297.657 94.1024 295.894 93.3723 294.57 92.0478L283.523 81.0011C282.198 79.6766 281.469 77.9155 281.469 76.0418C281.469 74.1682 282.199 72.407 283.523 71.0814C286.258 68.3487 290.707 68.3487 293.442 71.0814L299.53 77.17L315.087 61.6128C316.411 60.2883 318.172 59.5583 320.047 59.5583C321.92 59.5583 323.682 60.2883 325.007 61.6128C326.332 62.9361 327.061 64.6973 327.061 66.5721C327.061 68.4457 326.33 70.2069 325.006 71.5314L304.49 92.0478C303.166 93.3734 301.404 94.1024 299.53 94.1024ZM288.483 74.5431C288.1 74.5431 287.715 74.6887 287.423 74.982C287.14 75.2643 286.984 75.6415 286.984 76.0418C286.984 76.4421 287.14 76.8193 287.423 77.1016L298.47 88.1495C299.037 88.7163 300.025 88.7152 300.59 88.1495L321.108 67.633C321.391 67.3496 321.547 66.9724 321.547 66.5721C321.547 66.1718 321.39 65.7946 321.108 65.5123C320.541 64.9443 319.553 64.9454 318.988 65.5112L301.48 83.0181C300.963 83.5353 300.262 83.8254 299.53 83.8254C298.799 83.8254 298.098 83.5353 297.58 83.0181L289.543 74.9809C289.252 74.6898 288.868 74.5431 288.483 74.5431Z" fill="#8DC63F"/>
<path d="M304.046 260.149C258.743 260.149 221.887 223.293 221.887 177.99C221.887 150.548 235.514 125.025 258.34 109.716C259.605 108.867 261.317 109.205 262.166 110.47C263.014 111.734 262.676 113.448 261.411 114.296C240.115 128.578 227.401 152.39 227.401 177.99C227.401 220.252 261.784 254.635 304.046 254.635C346.307 254.635 380.69 220.252 380.69 177.99C380.69 159.021 373.705 140.816 361.022 126.731C360.003 125.599 360.094 123.856 361.226 122.837C362.357 121.818 364.101 121.909 365.12 123.041C378.717 138.14 386.205 157.656 386.205 177.99C386.204 223.293 349.349 260.149 304.046 260.149Z" fill="#747474"/>
<path d="M362.769 91.9034H383.953C385.476 91.9034 386.71 90.6693 386.71 89.1464C386.71 87.6234 385.476 86.3894 383.953 86.3894H353.074C351.551 86.3894 350.317 87.6234 350.317 89.1464V120.025C350.317 121.548 351.551 122.782 353.074 122.782C354.597 122.782 355.831 121.548 355.831 120.025V93.97C384.877 111.905 402.747 143.689 402.747 177.99C402.747 232.414 358.47 276.691 304.046 276.691C249.622 276.691 205.345 232.414 205.345 177.99C205.345 142.575 224.491 109.682 255.311 92.146C256.634 91.3928 257.096 89.7099 256.344 88.3865C255.591 87.0621 253.908 86.5989 252.585 87.3532C220.045 105.867 199.831 140.597 199.831 177.99C199.831 235.454 246.582 282.205 304.046 282.205C361.51 282.205 408.261 235.454 408.261 177.99C408.261 143.392 391.043 111.22 362.769 91.9034Z" fill="#2C2C2C"/>
<g clip-path="url(#clip0)">
<path d="M403.967 305.357L354.264 285.479C349.511 283.578 344.129 285.897 342.228 290.65L301.866 391.57C299.971 396.309 302.268 401.703 307.021 403.604L356.724 423.482C361.47 425.38 366.867 423.067 368.763 418.325L409.125 317.405C411.023 312.65 408.713 307.255 403.967 305.357ZM367.845 401.927L313.839 380.328L346.309 299.141L400.315 320.74L367.845 401.927ZM387.146 308.762L364.102 299.546L365.107 297.033L388.155 306.251L387.146 308.762ZM397.466 311.557C396.98 312.773 395.595 313.36 394.383 312.876C393.168 312.39 392.575 311.007 393.059 309.795C393.544 308.583 394.927 307.99 396.142 308.477C397.359 308.959 397.952 310.342 397.466 311.557ZM346.032 408.568L325.046 400.175L327.628 393.718L348.614 402.111L346.032 408.568Z" fill="#2C2C2C"/>
</g>
<g clip-path="url(#clip1)">
<path d="M373.136 358.968L372.521 360.576C371.078 364.344 368.456 367.544 365.046 369.7C361.636 371.855 357.62 372.851 353.597 372.538C349.575 372.224 345.762 370.619 342.726 367.962C339.691 365.305 337.595 361.737 336.753 357.791C335.911 353.846 336.366 349.734 338.052 346.068C339.737 342.403 342.563 339.38 346.106 337.452C349.65 335.523 353.722 334.792 357.715 335.367C361.709 335.942 365.409 337.792 368.265 340.642" stroke="#8DC63F" stroke-width="2" stroke-linecap="round" stroke-linejoin="round"/>
<path d="M377.866 346.596L353.703 357.407L350.465 350.16" stroke="#8DC63F" stroke-width="2" stroke-linecap="round" stroke-linejoin="round"/>
</g>
<rect x="93.9445" y="53.0335" width="7.01434" height="93.782" rx="3.50717" transform="rotate(-60.5425 93.9445 53.0335)" fill="#F15A22"/>
<rect x="95" y="133.4" width="7.01434" height="67.1202" rx="3.50717" transform="rotate(-82.6025 95 133.4)" fill="#F15A22"/>
<rect x="165" y="3.98872" width="7.01434" height="67.1202" rx="3.50717" transform="rotate(-34.6563 165 3.98872)" fill="#F15A22"/>
<defs>
<clipPath id="clip0">
<rect width="127.222" height="127.222" fill="white" transform="translate(320.059 271.799) rotate(21.7985)"/>
</clipPath>
<clipPath id="clip1">
<rect width="44.9019" height="44.9019" fill="white" transform="translate(342.093 324.907) rotate(20.9232)"/>
</clipPath>
</defs>
</svg>
