<svg width="163" height="163" viewBox="0 0 163 163" fill="none" xmlns="http://www.w3.org/2000/svg">
<path d="M94.2344 150.266H7.64062L12.7344 48.3906H89.1406L94.2344 150.266Z" fill="#8DC63F"/>
<path d="M114.609 150.266H94.2344L89.1406 48.3906H109.516L114.609 150.266Z" fill="#4B7414"/>
<path d="M155.359 150.266H134.984L134.666 146.149V146.146L129.891 84.0469H150.266L154.961 145.073V145.076L155.359 150.266Z" fill="#F15A22"/>
<path d="M40.75 94.2344H25.4688V73.8594L33.1094 68.7656L40.75 73.8594V94.2344Z" fill="#F58220"/>
<path d="M134.984 150.266H68.7656L73.8594 84.0469H129.891L134.984 150.266Z" fill="#F58220"/>
<mask id="path-6-inside-1" fill="white">
<path d="M152.805 83.8514C152.756 83.2117 152.467 82.6141 151.996 82.1781C151.525 81.7422 150.907 81.5 150.266 81.5001H113.721L112.059 48.2633C112.027 47.6107 111.744 46.9956 111.271 46.5453C110.797 46.0949 110.169 45.8438 109.516 45.8438H91.6875V33.1094C91.6888 29.442 90.8097 25.8279 89.1243 22.5707C87.4388 19.3135 84.9962 16.5085 82.0016 14.3913C79.007 12.2742 75.548 10.9067 71.9152 10.4039C68.2825 9.90107 64.5821 10.2776 61.125 11.5017C57.6679 10.2776 53.9675 9.90107 50.3348 10.4039C46.702 10.9067 43.243 12.2742 40.2484 14.3913C37.2538 16.5085 34.8112 19.3135 33.1257 22.5707C31.4402 25.8279 30.5612 29.442 30.5625 33.1094V45.8438H12.7344C12.0809 45.8438 11.4525 46.0949 10.9791 46.5453C10.5056 46.9956 10.2234 47.6107 10.1907 48.2633L5.09694 150.138C5.07968 150.483 5.13268 150.828 5.25272 151.151C5.37276 151.475 5.55734 151.771 5.79524 152.021C6.03314 152.271 6.3194 152.47 6.63663 152.606C6.95386 152.742 7.29544 152.813 7.64063 152.813H155.359C155.71 152.813 156.057 152.74 156.379 152.6C156.701 152.459 156.99 152.254 157.228 151.996C157.467 151.739 157.649 151.435 157.765 151.103C157.88 150.772 157.926 150.42 157.899 150.07L152.805 83.8514ZM145.172 139.576L150.601 147.719H139.744L145.172 139.576ZM152.073 140.744L147.643 134.1L142.892 86.5938H147.907L152.073 140.744ZM137.773 86.5938L142.549 134.331L136.958 142.714L132.641 86.5938H137.773ZM108.621 81.5001H103.827L102.029 50.9375H107.091L108.621 81.5001ZM96.9267 50.9375L98.7248 81.5001H93.3446L91.8164 50.9375H96.9267ZM68.7656 15.2813C73.4923 15.2867 78.0238 17.1667 81.3661 20.509C84.7083 23.8512 86.5883 28.3828 86.5937 33.1094V45.8438H76.4062V33.1094C76.4062 29.6946 75.6421 26.3231 74.1698 23.2421C72.6975 20.161 70.5543 17.4484 67.8975 15.3033C68.1852 15.2896 68.4743 15.2813 68.7656 15.2813ZM61.125 17.0049C64.171 18.4527 66.7446 20.7338 68.5476 23.584C70.3506 26.4341 71.3092 29.7368 71.3125 33.1094V45.8438H50.9375V33.1094C50.9408 29.7368 51.8994 26.4341 53.7024 23.584C55.5054 20.7338 58.079 18.4527 61.125 17.0049ZM35.6562 33.1094C35.6616 28.3828 37.5417 23.8512 40.8839 20.509C44.2262 17.1667 48.7577 15.2867 53.4844 15.2813C53.7757 15.2813 54.0647 15.2896 54.3525 15.3033C51.6956 17.4484 49.5524 20.1609 48.0801 23.242C46.6078 26.3231 45.8437 29.6946 45.8437 33.1094V45.8438H35.6562V33.1094ZM66.4072 147.719H10.318L15.1571 50.9375H30.5625V67.4028L24.0559 71.7404C23.707 71.973 23.421 72.2881 23.2232 72.6578C23.0254 73.0274 22.9219 73.4402 22.9219 73.8594V94.2344C22.9219 94.9099 23.1902 95.5577 23.6678 96.0353C24.1455 96.513 24.7933 96.7813 25.4688 96.7813H40.75C41.4255 96.7813 42.0733 96.513 42.5509 96.0353C43.0285 95.5577 43.2969 94.9099 43.2969 94.2344V73.8594C43.2969 73.4402 43.1934 73.0274 42.9955 72.6578C42.7977 72.2881 42.5117 71.973 42.1629 71.7404L35.6562 67.4028V50.9375H71.3125V58.5782C71.3125 59.2536 71.5808 59.9015 72.0585 60.3791C72.5361 60.8567 73.1839 61.125 73.8594 61.125C74.5348 61.125 75.1826 60.8567 75.6603 60.3791C76.1379 59.9015 76.4062 59.2536 76.4062 58.5782V50.9375H86.7179L88.246 81.5001H73.8594C73.2177 81.5 72.5997 81.7422 72.1288 82.1781C71.658 82.6141 71.3691 83.2117 71.3198 83.8514L66.4072 147.719ZM33.1094 71.8267L38.2031 75.2223V91.6876H28.0156V75.2223L33.1094 71.8267ZM76.2178 86.5938H127.532L132.234 147.719H71.5159L76.2178 86.5938Z"/>
</mask>
<path d="M152.805 83.8514C152.756 83.2117 152.467 82.6141 151.996 82.1781C151.525 81.7422 150.907 81.5 150.266 81.5001H113.721L112.059 48.2633C112.027 47.6107 111.744 46.9956 111.271 46.5453C110.797 46.0949 110.169 45.8438 109.516 45.8438H91.6875V33.1094C91.6888 29.442 90.8097 25.8279 89.1243 22.5707C87.4388 19.3135 84.9962 16.5085 82.0016 14.3913C79.007 12.2742 75.548 10.9067 71.9152 10.4039C68.2825 9.90107 64.5821 10.2776 61.125 11.5017C57.6679 10.2776 53.9675 9.90107 50.3348 10.4039C46.702 10.9067 43.243 12.2742 40.2484 14.3913C37.2538 16.5085 34.8112 19.3135 33.1257 22.5707C31.4402 25.8279 30.5612 29.442 30.5625 33.1094V45.8438H12.7344C12.0809 45.8438 11.4525 46.0949 10.9791 46.5453C10.5056 46.9956 10.2234 47.6107 10.1907 48.2633L5.09694 150.138C5.07968 150.483 5.13268 150.828 5.25272 151.151C5.37276 151.475 5.55734 151.771 5.79524 152.021C6.03314 152.271 6.3194 152.47 6.63663 152.606C6.95386 152.742 7.29544 152.813 7.64063 152.813H155.359C155.71 152.813 156.057 152.74 156.379 152.6C156.701 152.459 156.99 152.254 157.228 151.996C157.467 151.739 157.649 151.435 157.765 151.103C157.88 150.772 157.926 150.42 157.899 150.07L152.805 83.8514ZM145.172 139.576L150.601 147.719H139.744L145.172 139.576ZM152.073 140.744L147.643 134.1L142.892 86.5938H147.907L152.073 140.744ZM137.773 86.5938L142.549 134.331L136.958 142.714L132.641 86.5938H137.773ZM108.621 81.5001H103.827L102.029 50.9375H107.091L108.621 81.5001ZM96.9267 50.9375L98.7248 81.5001H93.3446L91.8164 50.9375H96.9267ZM68.7656 15.2813C73.4923 15.2867 78.0238 17.1667 81.3661 20.509C84.7083 23.8512 86.5883 28.3828 86.5937 33.1094V45.8438H76.4062V33.1094C76.4062 29.6946 75.6421 26.3231 74.1698 23.2421C72.6975 20.161 70.5543 17.4484 67.8975 15.3033C68.1852 15.2896 68.4743 15.2813 68.7656 15.2813ZM61.125 17.0049C64.171 18.4527 66.7446 20.7338 68.5476 23.584C70.3506 26.4341 71.3092 29.7368 71.3125 33.1094V45.8438H50.9375V33.1094C50.9408 29.7368 51.8994 26.4341 53.7024 23.584C55.5054 20.7338 58.079 18.4527 61.125 17.0049ZM35.6562 33.1094C35.6616 28.3828 37.5417 23.8512 40.8839 20.509C44.2262 17.1667 48.7577 15.2867 53.4844 15.2813C53.7757 15.2813 54.0647 15.2896 54.3525 15.3033C51.6956 17.4484 49.5524 20.1609 48.0801 23.242C46.6078 26.3231 45.8437 29.6946 45.8437 33.1094V45.8438H35.6562V33.1094ZM66.4072 147.719H10.318L15.1571 50.9375H30.5625V67.4028L24.0559 71.7404C23.707 71.973 23.421 72.2881 23.2232 72.6578C23.0254 73.0274 22.9219 73.4402 22.9219 73.8594V94.2344C22.9219 94.9099 23.1902 95.5577 23.6678 96.0353C24.1455 96.513 24.7933 96.7813 25.4688 96.7813H40.75C41.4255 96.7813 42.0733 96.513 42.5509 96.0353C43.0285 95.5577 43.2969 94.9099 43.2969 94.2344V73.8594C43.2969 73.4402 43.1934 73.0274 42.9955 72.6578C42.7977 72.2881 42.5117 71.973 42.1629 71.7404L35.6562 67.4028V50.9375H71.3125V58.5782C71.3125 59.2536 71.5808 59.9015 72.0585 60.3791C72.5361 60.8567 73.1839 61.125 73.8594 61.125C74.5348 61.125 75.1826 60.8567 75.6603 60.3791C76.1379 59.9015 76.4062 59.2536 76.4062 58.5782V50.9375H86.7179L88.246 81.5001H73.8594C73.2177 81.5 72.5997 81.7422 72.1288 82.1781C71.658 82.6141 71.3691 83.2117 71.3198 83.8514L66.4072 147.719ZM33.1094 71.8267L38.2031 75.2223V91.6876H28.0156V75.2223L33.1094 71.8267ZM76.2178 86.5938H127.532L132.234 147.719H71.5159L76.2178 86.5938Z" fill="#2C2C2C" stroke="#2C2C2C" stroke-width="2" mask="url(#path-6-inside-1)"/>
<path d="M112.562 119.704V119.703V99.3281C112.562 98.7853 112.778 98.2646 113.162 97.8808C113.546 97.4969 114.067 97.2812 114.609 97.2812C115.152 97.2812 115.673 97.4969 116.057 97.8808C116.441 98.2646 116.656 98.7853 116.656 99.3281V119.703C116.653 122.946 115.362 126.056 113.069 128.35C110.775 130.644 107.665 131.934 104.421 131.937H99.3287C96.0849 131.934 92.975 130.644 90.6813 128.35C88.3877 126.056 87.0975 122.947 87.0938 119.703V99.3281C87.0938 98.7853 87.3094 98.2646 87.6933 97.8808C88.0771 97.4969 88.5978 97.2812 89.1406 97.2812C89.6835 97.2812 90.2041 97.4969 90.588 97.8808C90.9718 98.2646 91.1875 98.7853 91.1875 99.3281L91.1875 119.703L91.1875 119.704C91.1899 121.862 92.0483 123.931 93.5743 125.457C95.1004 126.983 97.1694 127.841 99.3276 127.844H99.3281H104.422H104.422C106.581 127.841 108.65 126.983 110.176 125.457C111.702 123.931 112.56 121.862 112.562 119.704Z" fill="#2C2C2C" stroke="#2C2C2C"/>
</svg>
