<svg width="136" height="156" viewBox="0 0 136 156" fill="none" xmlns="http://www.w3.org/2000/svg">
<path d="M68.4144 122.328C65.5023 122.328 63.1335 119.959 63.1335 117.047V115.609C59.3355 114.847 56.2083 113.219 53.8229 110.756C51.7908 108.66 50.4034 106.051 49.6997 103.003C49.314 101.331 49.7062 99.6023 50.7755 98.2582C51.8469 96.9111 53.4465 96.139 55.1663 96.139C57.7798 96.139 60.017 97.8941 60.6056 100.406C60.8999 101.661 61.4461 102.664 62.2779 103.473C63.6048 104.764 65.5419 105.391 68.1993 105.391C70.4811 105.391 72.2325 104.846 73.5529 103.725C74.7136 102.74 75.254 101.523 75.254 99.8974C75.254 98.4165 74.8381 97.3198 73.9458 96.4455C73.119 95.636 71.2165 94.3537 66.8544 92.8441C61.2777 91.0941 57.3423 88.9483 54.8727 86.3024C52.2247 83.4651 50.882 79.8168 50.882 75.4591C50.882 70.8869 52.3485 67.0811 55.2397 64.1466C57.361 61.9937 60.045 60.5236 63.2342 59.7651V57.8273C63.2342 54.9065 65.611 52.5298 68.5317 52.5298C71.4532 52.5298 73.8293 54.9065 73.8293 57.8273V59.8083C77.1796 60.6704 79.9363 62.3772 82.0396 64.895C83.8386 67.0501 85.0525 69.7169 85.6483 72.8218C85.9613 74.4538 85.531 76.1269 84.4689 77.412C83.3989 78.7073 81.8223 79.4499 80.1443 79.4499C77.5084 79.4499 75.2101 77.5948 74.6798 75.0396C74.4028 73.704 73.8911 72.6276 73.1169 71.7482C72.0044 70.4861 70.5156 69.8982 68.4324 69.8982C66.2197 69.8982 64.6208 70.3897 63.5443 71.4C62.5197 72.362 62.0419 73.6242 62.0419 75.3735C62.0419 77.5394 62.7658 78.4605 63.3105 78.9649C64.1596 79.7514 66.0564 80.989 70.2717 82.4196C74.51 83.8594 77.5675 85.2425 79.6182 86.6478C81.854 88.1805 83.5694 90.0535 84.7157 92.2151V92.2159C85.8649 94.3832 86.447 96.9456 86.447 99.8311C86.447 104.449 84.9381 108.27 81.9626 111.188C79.7838 113.324 77.0083 114.777 73.6969 115.519V117.048C73.6954 119.959 71.3266 122.328 68.4144 122.328ZM55.1656 99.7369C54.5496 99.7369 53.9754 100.014 53.5912 100.497C53.2083 100.979 53.068 101.597 53.2055 102.194C53.7595 104.594 54.8367 106.633 56.4061 108.252C58.5347 110.449 61.4828 111.811 65.1699 112.301C66.0636 112.419 66.7313 113.182 66.7313 114.084V117.047C66.7313 117.975 67.4862 118.73 68.4144 118.73C69.3427 118.73 70.0975 117.975 70.0975 117.047V114.025C70.0975 113.135 70.7473 112.379 71.6266 112.246C74.8568 111.756 77.4861 110.535 79.442 108.617C81.7021 106.402 82.8477 103.445 82.8477 99.8304C82.8477 97.5379 82.4059 95.5432 81.5352 93.9004C80.6638 92.2576 79.334 90.8163 77.5818 89.6153C75.8059 88.3978 73.0356 87.158 69.1124 85.826C65.1929 84.4955 62.4945 83.1147 60.8639 81.6043C59.2571 80.1162 58.4418 78.0193 58.4418 75.3727C58.4418 72.6384 59.3291 70.4185 61.0798 68.7757C62.8543 67.1098 65.2591 66.2996 68.4303 66.2996C71.5345 66.2996 74.0185 67.3322 75.8138 69.3686C76.9961 70.7106 77.7992 72.3721 78.2007 74.3071C78.3863 75.2015 79.2031 75.8513 80.1428 75.8513C80.7444 75.8513 81.3093 75.5843 81.6942 75.1195C81.9159 74.851 82.2641 74.2847 82.1137 73.4982C81.6338 70.9999 80.6796 68.8807 79.2772 67.1998C77.4307 64.9893 74.8878 63.5868 71.7187 63.0306C70.8581 62.8795 70.2307 62.1325 70.2307 61.259V57.8266C70.2307 56.8897 69.4679 56.1269 68.531 56.1269C67.5941 56.1269 66.8314 56.8897 66.8314 57.8266V61.241C66.8314 62.1246 66.1902 62.8766 65.3181 63.0169C62.2297 63.5134 59.7011 64.7432 57.8021 66.6716C55.5973 68.9095 54.4791 71.8655 54.4791 75.4584C54.4791 78.8749 55.4966 81.6978 57.5021 83.8472C59.5363 86.0268 62.9644 87.8524 67.9813 89.4275C72.0958 90.8508 74.8539 92.3001 76.4622 93.8745C78.0481 95.4273 78.8512 97.4537 78.8512 99.8974C78.8512 102.584 77.8517 104.794 75.8808 106.468C73.8825 108.165 71.369 108.99 68.1978 108.99C64.5568 108.99 61.7994 108.029 59.768 106.053C58.4476 104.768 57.5503 103.145 57.1013 101.227C56.8991 100.364 56.0845 99.7369 55.1656 99.7369Z" fill="#8DC63F"/>
<path d="M68.0001 43.5797C55.9853 43.5797 46.2106 33.8043 46.2106 21.7895C46.2106 9.77471 55.9853 -1.52588e-05 68.0001 -1.52588e-05C80.0148 -1.52588e-05 89.7896 9.77471 89.7896 21.7895C89.7896 33.805 80.0148 43.5797 68.0001 43.5797ZM68.0001 3.59787C57.9692 3.59787 49.8085 11.7586 49.8085 21.7895C49.8085 31.8204 57.9692 39.9818 68.0001 39.9818C78.031 39.9818 86.1917 31.8211 86.1917 21.7895C86.1917 11.7586 78.031 3.59787 68.0001 3.59787Z" fill="#8DC63F"/>
<path d="M65.0535 32.6918C63.831 32.6918 62.6811 32.2154 61.8169 31.3512L54.6089 24.1432C53.7439 23.279 53.2683 22.1299 53.2683 20.9073C53.2683 19.6847 53.7447 18.5356 54.6089 17.6706C56.3934 15.8875 59.2962 15.8875 61.0808 17.6706L65.0535 21.6434L75.2046 11.4923C76.0681 10.6281 77.2173 10.1518 78.4405 10.1518C79.6631 10.1518 80.8123 10.6281 81.6772 11.4923C82.5414 12.3558 83.0171 13.505 83.0171 14.7283C83.0171 15.9508 82.5407 17.1 81.6765 17.9642L68.2895 31.3512C67.426 32.2162 66.2761 32.6918 65.0535 32.6918ZM57.8455 19.9294C57.5951 19.9294 57.344 20.0244 57.1533 20.2158C56.9691 20.4 56.8669 20.6461 56.8669 20.9073C56.8669 21.1685 56.9691 21.4146 57.1533 21.5988L64.362 28.8075C64.7319 29.1774 65.3766 29.1767 65.745 28.8075L79.1328 15.4205C79.3177 15.2356 79.4192 14.9895 79.4192 14.7283C79.4192 14.4671 79.317 14.221 79.1328 14.0368C78.7629 13.6662 78.1182 13.6669 77.7497 14.0361L66.3257 25.4593C65.9883 25.7968 65.5313 25.9861 65.0535 25.9861C64.5765 25.9861 64.1188 25.7968 63.7813 25.4593L58.537 20.2151C58.3471 20.0251 58.0967 19.9294 57.8455 19.9294Z" fill="#8DC63F"/>
<path d="M67.9998 141.037C38.4396 141.037 14.3914 116.989 14.3914 87.4286C14.3914 69.5226 23.2832 52.8687 38.177 42.8796C39.0023 42.3255 40.1191 42.5464 40.6732 43.3718C41.2265 44.1964 41.0063 45.3146 40.181 45.868C26.2852 55.1872 17.9892 70.7243 17.9892 87.4286C17.9892 115.004 40.4242 137.439 67.9998 137.439C95.5754 137.439 118.01 115.004 118.01 87.4286C118.01 75.0511 113.453 63.1723 105.177 53.9819C104.512 53.2436 104.572 52.106 105.31 51.4411C106.048 50.7762 107.186 50.8359 107.851 51.5742C116.723 61.4267 121.609 74.1603 121.609 87.4286C121.608 116.989 97.56 141.037 67.9998 141.037Z" fill="#747474"/>
<path d="M106.317 31.257H120.139C121.133 31.257 121.938 30.4518 121.938 29.458C121.938 28.4643 121.133 27.6591 120.139 27.6591H99.9909C98.9972 27.6591 98.192 28.4643 98.192 29.458V49.6062C98.192 50.5999 98.9972 51.4051 99.9909 51.4051C100.985 51.4051 101.79 50.5999 101.79 49.6062V32.6054C120.742 44.3079 132.402 65.0468 132.402 87.4286C132.402 122.94 103.512 151.831 68 151.831C32.4882 151.831 3.59788 122.94 3.59788 87.4286C3.59788 64.3201 16.0905 42.8573 36.2005 31.4153C37.064 30.9238 37.3655 29.8257 36.8747 28.9622C36.3832 28.098 35.2852 27.7958 34.4217 28.288C13.1891 40.3682 0 63.0299 0 87.4286C0 124.924 30.505 155.429 68 155.429C105.495 155.429 136 124.924 136 87.4286C136 64.8533 124.765 43.8611 106.317 31.257Z" fill="#2C2C2C"/>
</svg>
